HIERARCHY
ROOT root
{
	OFFSET 0.000000 0.000000 0.000000
	CHANNELS 6 Xposition Yposition Zposition Zrotation Yrotation Xrotation
	JOINT lhip
	{
		OFFSET 0.058581 -0.082280 -0.017664
		CHANNELS 3 Zrotation Yrotation Xrotation
		JOINT lknee
		{
			OFFSET 0.043451 -0.386469 0.008037
			CHANNELS 3 Zrotation Yrotation Xrotation
			JOINT lankle
			{
				OFFSET -0.014790 -0.426874 -0.037428
				CHANNELS 3 Zrotation Yrotation Xrotation
				JOINT ltoe
				{
					OFFSET 0.041054 -0.060286 0.122042
					CHANNELS 3 Zrotation Yrotation Xrotation
					End Site
					{
						OFFSET 0.000000 0.000000 0.000000
					}
				}
			}
		}
	}
	JOINT rhip
	{
		OFFSET -0.060310 -0.090513 -0.013543
		CHANNELS 3 Zrotation Yrotation Xrotation
		JOINT rknee
		{
			OFFSET -0.043257 -0.383688 -0.004843
			CHANNELS 3 Zrotation Yrotation Xrotation
			JOINT rankle
			{
				OFFSET 0.019056 -0.420046 -0.034562
				CHANNELS 3 Zrotation Yrotation Xrotation
				JOINT rtoe
				{
					OFFSET -0.034840 -0.062106 0.130323
					CHANNELS 3 Zrotation Yrotation Xrotation
					End Site
					{
						OFFSET 0.000000 0.000000 0.000000
					}
				}
			}
		}
	}
	JOINT lowerback
	{
		OFFSET 0.004439 0.124404 -0.038385
		CHANNELS 3 Zrotation Yrotation Xrotation
		JOINT upperback
		{
			OFFSET 0.004488 0.137956 0.026820
			CHANNELS 3 Zrotation Yrotation Xrotation
			JOINT chest
			{
				OFFSET -0.002265 0.056032 0.002855
				CHANNELS 3 Zrotation Yrotation Xrotation
				JOINT lowerneck
				{
					OFFSET -0.013390 0.211636 -0.033468
					CHANNELS 3 Zrotation Yrotation Xrotation
					JOINT upperneck
					{
						OFFSET 0.010113 0.088937 0.050410
						CHANNELS 3 Zrotation Yrotation Xrotation
						End Site
						{
							OFFSET 0.000000 0.000000 0.000000
						}
					}
				}
				JOINT lclavicle
				{
					OFFSET 0.071702 0.114000 -0.018898
					CHANNELS 3 Zrotation Yrotation Xrotation
					JOINT lshoulder
					{
						OFFSET 0.122921 0.045205 -0.019046
						CHANNELS 3 Zrotation Yrotation Xrotation
						JOINT lelbow
						{
							OFFSET 0.255332 -0.015649 -0.022946
							CHANNELS 3 Zrotation Yrotation Xrotation
							JOINT lwrist
							{
								OFFSET 0.265709 0.012698 -0.007375
								CHANNELS 3 Zrotation Yrotation Xrotation
								End Site
								{
									OFFSET 0.000000 0.000000 0.000000
								}
							}
						}
					}
				}
				JOINT rclavicle
				{
					OFFSET -0.082954 0.112472 -0.023707
					CHANNELS 3 Zrotation Yrotation Xrotation
					JOINT rshoulder
					{
						OFFSET -0.113228 0.046853 -0.008472
						CHANNELS 3 Zrotation Yrotation Xrotation
						JOINT relbow
						{
							OFFSET -0.260127 -0.014369 -0.031269
							CHANNELS 3 Zrotation Yrotation Xrotation
							JOINT rwrist
							{
								OFFSET -0.269108 0.006794 -0.006027
								CHANNELS 3 Zrotation Yrotation Xrotation
								End Site
								{
									OFFSET 0.000000 0.000000 0.000000
								}
							}
						}
					}
				}
			}
		}
	}
}
MOTION
Frames: 15
Frame Time: 0.033333
-1.181845 -0.411630 0.454842 -84.308780 -18.498498 94.140668 19.537621 29.317989 -81.093254 -11.398226 30.319389 112.576681 1.596322 -10.981967 -30.234780 0.000000 -0.000000 0.000000 -4.873351 -28.990580 -69.951756 -4.243314 -40.703756 134.801859 0.947804 27.836148 -28.679662 0.000000 -0.000000 0.000000 -2.010701 1.149320 73.282222 3.311993 -12.755704 -7.373447 3.922860 -4.150758 -5.853137 -24.757627 18.657536 -9.543441 1.002428 5.872117 -19.209808 -5.604841 -52.303875 -7.825886 -17.526705 -26.820377 -14.190006 14.929276 -19.965088 -9.297127 20.531022 -9.382798 14.738850 17.902786 36.010828 13.639292 28.085025 7.301451 -10.605127 -0.159212 16.438570 12.741412 -43.875821 17.806371 5.389386 
-1.198581 -0.433267 0.481700 -85.270463 -17.674068 99.939716 17.564938 28.375819 -82.182614 -10.956530 31.193253 110.750198 3.027336 -10.935921 -33.448179 0.000000 -0.000000 0.000000 -4.846769 -27.862539 -74.320880 -4.952001 -40.001759 133.879974 0.179626 26.030605 -30.318413 0.000000 -0.000000 0.000000 -1.024891 0.659427 72.876058 2.848443 -10.924537 -8.473581 3.838510 -3.101736 -5.004646 -26.216651 16.830827 -9.226912 0.870475 4.345535 -20.890852 -2.212616 -52.211593 -11.427328 -19.310138 -30.528483 -11.840550 14.142429 -21.202814 -10.784476 20.186497 -10.816254 10.201549 17.087612 36.325724 13.675224 25.919429 7.043138 -11.123250 -0.293928 12.951403 8.685387 -41.670660 16.528148 5.897765 
-1.214291 -0.451577 0.508621 -86.467612 -16.200299 104.164107 16.491263 26.497202 -82.454507 -10.316930 30.869793 109.113207 4.104439 -9.887319 -36.377770 0.000000 -0.000000 0.000000 -5.017327 -25.303005 -78.063405 -5.307168 -38.913183 132.316404 0.592588 23.439235 -30.368325 0.000000 -0.000000 0.000000 -0.245419 0.693140 73.032691 2.400917 -9.259585 -8.871619 3.974460 -2.173782 -4.405304 -27.132575 15.603162 -8.945821 0.408946 3.305296 -22.558533 -0.214625 -52.428629 -15.267153 -21.016742 -33.817399 -8.679098 12.876178 -20.116412 -10.366990 21.127334 -11.998205 13.063866 17.202561 37.035308 13.156503 23.368512 6.701311 -11.396184 -0.891890 10.518115 4.328974 -39.195015 15.608361 7.056631 
-1.228645 -0.467449 0.537155 -87.838782 -14.328079 106.470575 16.096386 24.244200 -81.090816 -10.007051 29.699664 107.149911 4.524170 -8.199147 -38.844900 0.000000 -0.000000 0.000000 -5.458697 -21.443594 -80.431206 -5.447476 -37.145890 130.306996 1.434315 20.121680 -29.136864 0.000000 -0.000000 0.000000 -0.476586 0.280717 74.391678 1.711742 -8.274891 -8.564148 3.780169 -1.591995 -4.403295 -27.236200 14.625099 -9.960927 0.010876 3.915254 -23.897301 -2.166043 -52.941798 -16.227328 -19.517781 -34.345616 -6.794789 11.850498 -20.058520 -11.017097 22.349511 -13.326147 16.476936 18.792067 38.872970 13.170987 20.010247 7.461382 -11.336339 -1.647278 9.859913 -0.231582 -36.710081 14.592707 7.953567 
-1.240700 -0.480409 0.565927 -89.487852 -11.651179 107.721802 16.385894 22.741143 -78.934668 -10.383072 28.117978 104.747737 4.464336 -5.912933 -40.681786 0.000000 -0.000000 0.000000 -5.777753 -16.020234 -82.308022 -5.946943 -35.380261 128.729086 2.011265 16.144227 -27.281327 0.000000 -0.000000 0.000000 -1.942122 -0.081002 76.171063 1.278857 -7.674071 -8.204610 3.752264 -1.200992 -4.950955 -27.328115 14.393881 -11.401557 0.011925 5.295530 -24.773136 -3.168315 -53.549841 -15.468827 -16.350699 -31.223850 -5.737553 11.512846 -21.016353 -13.201905 22.971780 -15.224803 16.811026 19.371249 42.143003 12.738951 17.509321 9.607173 -11.057161 -2.964026 9.905137 -4.263675 -29.207027 12.112033 9.525320 
-1.250235 -0.491260 0.592915 -90.702414 -7.960778 108.304361 17.514497 21.970115 -76.759760 -10.862853 26.377364 102.385054 4.652844 -2.948164 -42.091738 0.000000 -0.000000 0.000000 -5.896310 -9.975815 -84.215458 -5.146037 -34.230360 127.702562 1.778836 13.130550 -27.168233 0.000000 -0.000000 0.000000 -3.721747 -0.492082 77.319234 1.262306 -7.139084 -7.662731 3.949824 -0.882707 -6.046112 -27.096766 14.469568 -12.538915 0.376413 7.566836 -25.032863 -2.982705 -53.968802 -14.795381 -14.084251 -26.261284 -5.107594 12.004916 -21.558172 -16.276561 20.113283 -14.254620 17.783969 18.359563 45.960543 11.185399 15.999217 12.474936 -11.225393 -5.707561 10.415009 -5.571802 -10.997038 6.080409 14.092638 
-1.257445 -0.499934 0.617608 -91.240538 -4.569666 108.291114 18.491404 21.152600 -74.429321 -11.330773 24.409651 99.663237 5.091210 0.076377 -43.334598 0.000000 -0.000000 0.000000 -6.479767 -5.082277 -86.438676 -3.158992 -32.352393 127.704050 1.106289 10.176058 -28.254449 0.000000 -0.000000 0.000000 -5.406038 -0.869507 78.107255 1.597016 -7.188208 -7.269078 4.321566 -0.912560 -7.266757 -26.228854 14.817234 -14.142350 1.027213 10.457321 -25.004483 -1.880611 -54.169376 -14.395577 -12.614187 -20.877135 -5.276260 12.208351 -21.022187 -19.227818 14.561574 -11.910201 18.398507 16.035188 49.129014 8.524993 14.833121 15.529460 -10.646775 -8.201106 14.725569 -1.196776 11.737020 -3.842263 21.006792 
-1.262990 -0.505412 0.640535 -91.112469 -1.829825 107.948145 18.779513 20.402869 -72.374117 -11.745008 21.747569 96.748137 5.200504 1.961515 -43.921520 0.000000 -0.000000 0.000000 -7.812902 -2.229327 -88.603170 -2.278491 -28.651105 127.936934 0.077009 4.688707 -29.160545 0.000000 -0.000000 0.000000 -6.443494 -1.249607 78.848212 1.848557 -7.663143 -7.783308 4.912218 -1.664866 -8.059531 -24.400591 15.583718 -15.602522 1.672315 13.550711 -26.046207 -1.724294 -54.520692 -12.571935 -10.572804 -16.203488 -7.015270 10.731470 -18.940197 -19.771578 10.742201 -10.357196 18.012584 12.437728 51.307880 5.146581 15.906437 19.365465 -9.041408 -10.033662 21.789137 0.804599 21.475069 -7.718724 21.144236 
-1.266771 -0.508348 0.662673 -89.710010 0.686904 107.521418 18.520218 19.610393 -71.214952 -12.054280 18.359957 94.025239 5.068019 2.748254 -43.590721 0.000000 -0.000000 0.000000 -9.360408 -2.068919 -89.871188 -2.339734 -23.956869 125.408024 -1.659282 -3.361288 -29.619893 0.000000 -0.000000 0.000000 -5.858881 -2.286615 79.318556 2.322766 -8.530012 -8.989566 5.416547 -3.063338 -7.907826 -21.498382 16.866882 -17.168643 1.629516 15.807697 -27.264137 -3.555039 -54.579900 -8.977845 -7.232725 -12.986696 -10.236843 7.987448 -15.769256 -17.487176 9.557132 -9.789468 15.981430 10.240994 52.486736 3.043403 18.348579 24.759560 -8.365243 -13.801592 26.000187 -4.406631 14.974729 -2.979011 16.291415 
-1.268800 -0.508923 0.683840 -87.568471 3.266808 107.518462 18.224614 19.033594 -70.594773 -11.875059 14.911699 91.182600 4.953460 3.048389 -43.122898 0.000000 -0.000000 0.000000 -10.750165 -3.496999 -89.936374 -2.759285 -19.422762 118.498346 -3.226408 -10.566643 -28.993372 0.000000 -0.000000 0.000000 -3.900812 -3.787034 79.084589 2.934804 -8.904687 -10.198274 5.823245 -3.904836 -7.396592 -19.153052 17.476764 -18.696320 1.436788 16.576584 -27.482544 -5.805303 -53.555614 -5.636286 -4.955080 -11.753838 -13.490155 6.298950 -14.233572 -14.546191 8.962860 -9.734904 13.948072 11.242514 52.288105 3.503244 18.961286 29.283477 -8.956726 -16.527807 29.135766 -9.245797 2.532453 3.965226 12.540929 
-1.270928 -0.506404 0.703851 -86.216414 5.364404 107.865037 18.319841 18.782291 -69.064152 -11.307512 12.232275 87.531615 4.993563 3.318972 -43.342394 0.000000 -0.000000 0.000000 -12.013505 -4.110875 -88.497997 -2.557498 -15.729234 107.660960 -3.310828 -13.691494 -27.682300 0.000000 -0.000000 0.000000 -2.284126 -4.283648 77.965442 3.104179 -7.720777 -11.056935 6.345434 -3.705387 -6.963978 -17.574753 16.817123 -19.860588 1.340355 16.303379 -26.750122 -7.499580 -51.481638 -3.773680 -5.516548 -12.505016 -15.074540 8.115786 -16.193731 -14.206453 7.805858 -10.283693 11.475678 12.409556 50.845964 3.911945 19.613789 30.603129 -8.421903 -19.253660 32.496915 -12.675372 -1.503883 7.103466 9.754440 
-1.274289 -0.500931 0.722506 -85.841353 6.143818 108.020134 18.739468 17.825257 -66.255180 -10.698484 10.735026 83.301750 5.215599 4.124060 -43.700656 0.000000 -0.000000 0.000000 -13.159587 -3.307037 -85.208719 -0.004665 -12.624268 95.300781 -1.302710 -12.477607 -23.532542 0.000000 -0.000000 0.000000 -1.760254 -3.544283 75.966879 2.979847 -6.039696 -11.099750 6.761580 -2.922740 -6.815622 -16.094099 15.637321 -21.241306 1.560144 15.549695 -25.386661 -9.386377 -48.666497 -2.563135 -7.363711 -14.080450 -14.290176 10.955291 -20.686745 -15.998542 8.023336 -12.016430 7.311110 14.236230 48.550953 4.754683 20.586051 29.929783 -6.608259 -21.376969 34.193797 -15.336535 0.431216 6.962688 8.211595 
-1.279925 -0.493290 0.738692 -85.339243 5.609017 107.528107 18.703310 15.839988 -63.141273 -10.141756 9.760056 79.745283 5.258636 5.175330 -43.428257 0.000000 -0.000000 0.000000 -13.875529 -2.130903 -79.873794 2.788762 -9.298102 86.272229 0.697776 -10.297377 -21.526584 0.000000 -0.000000 0.000000 -1.569955 -2.573531 73.145413 2.926326 -4.809736 -10.379574 6.885430 -2.060250 -6.705206 -14.521075 14.445463 -22.790638 1.837093 14.208682 -23.566099 -12.163713 -45.918952 -1.299792 -10.360571 -15.264752 -11.031403 13.544826 -26.289698 -14.904408 13.088022 -14.988612 6.928244 17.540427 46.163388 6.502167 21.553467 27.707546 -4.893743 -21.597277 33.990331 -17.038287 -1.144707 7.539060 6.908691 
-1.289524 -0.482672 0.754367 -84.420272 4.613949 105.874904 18.101273 14.024993 -59.290377 -9.872956 8.203771 76.952587 4.983481 5.622890 -42.839133 0.000000 -0.000000 0.000000 -13.127132 -1.126629 -73.460339 2.930764 -6.959638 82.063823 -0.035442 -9.833831 -25.837490 0.000000 -0.000000 0.000000 -1.281983 -1.792498 70.444914 2.596090 -3.679107 -9.290475 6.856156 -1.234012 -6.565203 -12.928484 13.200692 -24.125934 1.969036 12.148208 -21.358511 -15.886568 -43.378635 0.054303 -14.944649 -15.597030 -7.839624 17.922108 -32.399462 -13.558891 16.607812 -15.776027 10.042610 21.727910 43.816909 8.552558 23.222306 23.693330 -4.420366 -22.211547 33.910182 -18.769698 -2.946932 7.731501 5.777563 
-1.300691 -0.472224 0.773342 -83.284752 3.587287 103.823561 17.494654 12.246907 -54.509941 -9.781200 6.640165 73.394988 4.939663 5.834490 -42.162725 0.000000 -0.000000 0.000000 -12.120196 -0.609021 -68.017419 2.118573 -6.088606 79.440740 -1.011114 -11.133543 -26.817067 0.000000 -0.000000 0.000000 -0.733787 -1.535532 67.734311 1.970699 -2.248406 -8.018444 6.551815 -0.527078 -6.598932 -11.735265 10.950706 -25.192554 2.115974 10.612879 -19.597047 -20.683968 -39.926466 1.655645 -19.566919 -16.076728 -5.314016 22.288250 -39.019094 -15.383606 16.821127 -14.056377 8.090545 25.838191 40.607771 10.228842 25.214130 19.426349 -3.454617 -23.827041 34.089065 -22.000881 -4.984723 7.488531 4.379151 
